<mxfile host="65bd71144e">
    <diagram id="mJ_q7Y9oJvcohYJoo6n6" name="Page-1">
        <mxGraphModel dx="95" dy="120" grid="1" gridSize="10" guides="1" tooltips="1" connect="1" arrows="1" fold="1" page="1" pageScale="1" pageWidth="827" pageHeight="1169" math="0" shadow="0">
            <root>
                <mxCell id="0"/>
                <mxCell id="1" parent="0"/>
                <mxCell id="7" value="&lt;font color=&quot;#0000ff&quot; size=&quot;3&quot;&gt;&lt;b&gt;DTO Mapper&lt;/b&gt;&lt;/font&gt;" style="shape=ext;double=1;rounded=0;whiteSpace=wrap;html=1;fillColor=none;strokeColor=#0000FF;" parent="1" vertex="1">
                    <mxGeometry x="250" y="330" width="240" height="50" as="geometry"/>
                </mxCell>
                <mxCell id="8" value="&lt;b&gt;&lt;font color=&quot;#0000ff&quot; style=&quot;font-size: 18px;&quot;&gt;Controller layer&lt;/font&gt;&lt;/b&gt;" style="shape=ext;double=1;rounded=0;whiteSpace=wrap;html=1;fillColor=none;strokeColor=#0000FF;" parent="1" vertex="1">
                    <mxGeometry x="250" y="240" width="240" height="50" as="geometry"/>
                </mxCell>
                <mxCell id="9" value="&lt;b style=&quot;&quot;&gt;&lt;font color=&quot;#0000ff&quot; style=&quot;font-size: 18px;&quot;&gt;Client side&lt;/font&gt;&lt;/b&gt;" style="shape=ext;double=1;rounded=0;whiteSpace=wrap;html=1;fillColor=none;strokeColor=#0000FF;" parent="1" vertex="1">
                    <mxGeometry x="250" y="150" width="240" height="50" as="geometry"/>
                </mxCell>
                <mxCell id="13" value="" style="shape=flexArrow;endArrow=classic;html=1;strokeColor=#0000FF;fillColor=none;rounded=0;" parent="1" edge="1">
                    <mxGeometry width="50" height="50" relative="1" as="geometry">
                        <mxPoint x="269.68" y="650" as="sourcePoint"/>
                        <mxPoint x="269.68" y="490" as="targetPoint"/>
                        <Array as="points"/>
                    </mxGeometry>
                </mxCell>
                <mxCell id="14" value="" style="shape=flexArrow;endArrow=classic;html=1;fillColor=none;rounded=0;strokeColor=#0000FF;" parent="1" edge="1">
                    <mxGeometry width="50" height="50" relative="1" as="geometry">
                        <mxPoint x="369.71" y="650" as="sourcePoint"/>
                        <mxPoint x="369.71" y="600" as="targetPoint"/>
                        <Array as="points">
                            <mxPoint x="369.71" y="630"/>
                            <mxPoint x="369.71" y="620"/>
                        </Array>
                    </mxGeometry>
                </mxCell>
                <mxCell id="16" value="" style="shape=flexArrow;endArrow=classic;html=1;fillColor=none;rounded=0;strokeColor=#0000FF;" parent="1" edge="1">
                    <mxGeometry width="50" height="50" relative="1" as="geometry">
                        <mxPoint x="340" y="600" as="sourcePoint"/>
                        <mxPoint x="340" y="650" as="targetPoint"/>
                        <Array as="points">
                            <mxPoint x="340" y="600"/>
                            <mxPoint x="339.9999999999999" y="630"/>
                        </Array>
                    </mxGeometry>
                </mxCell>
                <mxCell id="17" value="" style="shape=flexArrow;endArrow=classic;html=1;strokeColor=#00000000;fillColor=none;rounded=0;" parent="1" edge="1">
                    <mxGeometry width="50" height="50" relative="1" as="geometry">
                        <mxPoint x="300" y="490" as="sourcePoint"/>
                        <mxPoint x="300" y="650" as="targetPoint"/>
                        <Array as="points"/>
                    </mxGeometry>
                </mxCell>
                <mxCell id="18" value="&lt;b&gt;&lt;font color=&quot;#0000ff&quot; style=&quot;font-size: 18px;&quot;&gt;MySQL Data Base&lt;/font&gt;&lt;/b&gt;" style="shape=datastore;whiteSpace=wrap;html=1;strokeColor=#0000FF;fillColor=none;rounded=0;" parent="1" vertex="1">
                    <mxGeometry x="250" y="670" width="240" height="80" as="geometry"/>
                </mxCell>
                <mxCell id="23" value="&lt;font style=&quot;font-size: 10px;&quot;&gt;&lt;b&gt;&lt;font color=&quot;#0000ff&quot;&gt;Async Update&lt;br&gt;DB&lt;/font&gt;&lt;br&gt;&lt;/b&gt;&lt;/font&gt;" style="ellipse;whiteSpace=wrap;html=1;aspect=fixed;fontSize=11;rounded=0;perimeterSpacing=0;shadow=0;fillColor=none;strokeColor=#0000FF;" parent="1" vertex="1">
                    <mxGeometry x="320" y="505" width="80" height="80" as="geometry"/>
                </mxCell>
                <mxCell id="25" value="" style="endArrow=classic;html=1;fontSize=11;exitX=0.921;exitY=0.771;exitDx=0;exitDy=0;exitPerimeter=0;entryX=0.997;entryY=0.593;entryDx=0;entryDy=0;entryPerimeter=0;rounded=0;strokeColor=#0000FF;" parent="1" source="23" target="23" edge="1">
                    <mxGeometry width="50" height="50" relative="1" as="geometry">
                        <mxPoint x="450" y="675" as="sourcePoint"/>
                        <mxPoint x="460" y="665" as="targetPoint"/>
                    </mxGeometry>
                </mxCell>
                <mxCell id="26" style="edgeStyle=none;html=1;exitX=0.5;exitY=1;exitDx=0;exitDy=0;entryX=0.482;entryY=1.002;entryDx=0;entryDy=0;entryPerimeter=0;fontSize=10;curved=1;strokeColor=#0000FF;" parent="1" source="18" target="18" edge="1">
                    <mxGeometry relative="1" as="geometry"/>
                </mxCell>
                <mxCell id="27" value="&lt;b&gt;&lt;font color=&quot;#0000ff&quot;&gt;Query&lt;/font&gt;&lt;/b&gt;" style="text;html=1;strokeColor=none;fillColor=none;align=center;verticalAlign=middle;whiteSpace=wrap;rounded=0;fontSize=10;rotation=90;" parent="1" vertex="1">
                    <mxGeometry x="220" y="550" width="60" height="30" as="geometry"/>
                </mxCell>
                <mxCell id="31" value="" style="shape=flexArrow;endArrow=classic;html=1;fillColor=none;rounded=0;strokeColor=#0000FF;" parent="1" edge="1">
                    <mxGeometry width="50" height="50" relative="1" as="geometry">
                        <mxPoint x="379.68" y="420" as="sourcePoint"/>
                        <mxPoint x="379.6800000000002" y="380" as="targetPoint"/>
                        <Array as="points">
                            <mxPoint x="379.6800000000002" y="410"/>
                            <mxPoint x="379.6800000000002" y="400"/>
                        </Array>
                    </mxGeometry>
                </mxCell>
                <mxCell id="37" value="" style="shape=flexArrow;endArrow=classic;html=1;fontSize=10;fillColor=none;rounded=0;strokeColor=#0000FF;" parent="1" edge="1">
                    <mxGeometry width="50" height="50" relative="1" as="geometry">
                        <mxPoint x="350" y="380" as="sourcePoint"/>
                        <mxPoint x="350" y="420" as="targetPoint"/>
                    </mxGeometry>
                </mxCell>
                <mxCell id="39" value="" style="shape=flexArrow;endArrow=classic;html=1;fillColor=none;rounded=0;strokeColor=#0000FF;" parent="1" edge="1">
                    <mxGeometry width="50" height="50" relative="1" as="geometry">
                        <mxPoint x="379.68" y="330" as="sourcePoint"/>
                        <mxPoint x="379.68000000000023" y="290" as="targetPoint"/>
                        <Array as="points">
                            <mxPoint x="379.6800000000002" y="320"/>
                            <mxPoint x="379.6800000000002" y="310"/>
                        </Array>
                    </mxGeometry>
                </mxCell>
                <mxCell id="40" value="" style="shape=flexArrow;endArrow=classic;html=1;fontSize=10;fillColor=none;rounded=0;strokeColor=#0000FF;" parent="1" edge="1">
                    <mxGeometry width="50" height="50" relative="1" as="geometry">
                        <mxPoint x="350" y="290" as="sourcePoint"/>
                        <mxPoint x="350" y="330" as="targetPoint"/>
                    </mxGeometry>
                </mxCell>
                <mxCell id="41" value="" style="shape=flexArrow;endArrow=classic;html=1;fontSize=10;fillColor=none;rounded=0;strokeColor=#0000FF;" parent="1" edge="1">
                    <mxGeometry width="50" height="50" relative="1" as="geometry">
                        <mxPoint x="350" y="200" as="sourcePoint"/>
                        <mxPoint x="350" y="240" as="targetPoint"/>
                    </mxGeometry>
                </mxCell>
                <mxCell id="42" value="" style="shape=flexArrow;endArrow=classic;html=1;fillColor=none;rounded=0;strokeColor=#0000FF;" parent="1" edge="1">
                    <mxGeometry width="50" height="50" relative="1" as="geometry">
                        <mxPoint x="379.68" y="240" as="sourcePoint"/>
                        <mxPoint x="379.68000000000023" y="200" as="targetPoint"/>
                        <Array as="points">
                            <mxPoint x="379.6800000000002" y="230"/>
                            <mxPoint x="379.6800000000002" y="220"/>
                        </Array>
                    </mxGeometry>
                </mxCell>
                <mxCell id="48" value="&lt;font color=&quot;#0000ff&quot; size=&quot;3&quot;&gt;&lt;b&gt;Service layer&lt;/b&gt;&lt;/font&gt;" style="shape=ext;double=1;rounded=0;whiteSpace=wrap;html=1;fillColor=none;strokeColor=#0000FF;" parent="1" vertex="1">
                    <mxGeometry x="250" y="420" width="240" height="50" as="geometry"/>
                </mxCell>
                <mxCell id="49" value="&lt;font color=&quot;#0000ff&quot;&gt;&lt;i style=&quot;font-size: 10px; font-weight: 700; text-align: left;&quot;&gt;&lt;u&gt;Index : `rank`&lt;br&gt;&lt;/u&gt;&lt;/i&gt;&lt;u style=&quot;font-size: 10px; font-weight: 700; text-align: left;&quot;&gt;&lt;i&gt;Primary : `post_id`&lt;/i&gt;&lt;/u&gt;&lt;/font&gt;" style="rounded=1;whiteSpace=wrap;html=1;fillColor=none;strokeColor=#0000FF;" parent="1" vertex="1">
                    <mxGeometry x="400" y="590" width="110" height="60" as="geometry"/>
                </mxCell>
                <mxCell id="50" value="" style="shape=flexArrow;endArrow=classic;html=1;strokeColor=#0000FF;fillColor=none;rounded=0;" parent="1" edge="1">
                    <mxGeometry width="50" height="50" relative="1" as="geometry">
                        <mxPoint x="300" y="490" as="sourcePoint"/>
                        <mxPoint x="300" y="650" as="targetPoint"/>
                        <Array as="points"/>
                    </mxGeometry>
                </mxCell>
            </root>
        </mxGraphModel>
    </diagram>
</mxfile>